<svg version="1.1" id="Layer_1" xmlns="http://www.w3.org/2000/svg" x="0" y="0" width="135" height="135" xml:space="preserve"><style>.st141{fill:#ff1a1a}.st160{fill:#ffb000}.st168{fill:#ffd400}.st180{fill:#fff800}.st188{fill:#fff}.st205{fill:#33363a}.st211{fill:#6d5c4d}.st227{fill:#d61d1d}</style><path class="st168" d="M94.294 9.536H68.299L53.975 34.675h11.639L50.344 65.7l40.13-35.908H77.437z"/><path class="st160" d="M63.333 18.251l-9.358 16.424h11.639L50.344 65.7l30.389-27.193H70.604l7.252-8.715h-.419l9.603-11.541z"/><path class="st205" d="M50.344 67.2a1.499 1.499 0 01-1.345-2.162l14.206-28.863h-9.229a1.501 1.501 0 01-1.304-2.242L66.995 8.794a1.502 1.502 0 011.304-.758h25.995a1.5 1.5 0 011.153 2.46l-14.81 17.796h9.837a1.499 1.499 0 011 2.618l-40.13 35.908a1.496 1.496 0 01-1 .382zm6.212-34.025h9.059a1.499 1.499 0 011.345 2.162L55.102 59.43l31.446-28.138h-9.111a1.5 1.5 0 01-1.153-2.46l14.811-17.796H69.171L56.556 33.175z"/><path class="st180" d="M116.709 88.022c0 20.676-22.032 37.441-49.209 37.441-27.178 0-49.209-16.766-49.209-37.441 0-20.68 22.031-45.459 49.209-45.459 27.177 0 49.209 24.78 49.209 45.459z"/><path class="st168" d="M116.709 88.022c0 20.676-22.032 37.441-49.209 37.441-27.178 0-49.209-16.766-49.209-37.441 0-20.68 22.031-34.928 49.209-34.928 27.177.001 49.209 14.249 49.209 34.928z"/><path class="st180" d="M77.979 78.224c0 1.393-4.691 1.643-10.479 1.643s-10.479-.25-10.479-1.643c0-1.395 4.691-5.037 10.479-5.037s10.479 3.642 10.479 5.037z"/><path class="st160" d="M116.709 88.022c0 20.676-22.032 37.441-49.209 37.441-27.178 0-49.209-16.766-49.209-37.441 0-20.682 6.261 18.34 49.209 18.34s49.209-39.021 49.209-18.34z"/><path class="st205" d="M67.5 126.964c-27.961 0-50.709-17.469-50.709-38.941 0-21.27 22.619-46.959 50.709-46.959 13.041 0 25.772 5.472 35.849 15.406 9.305 9.174 14.86 20.97 14.86 31.553 0 21.472-22.748 38.941-50.709 38.941zm0-82.901c-26.428 0-47.709 24.048-47.709 43.959 0 19.818 21.402 35.941 47.709 35.941s47.709-16.123 47.709-35.941c0-19.911-21.281-43.959-47.709-43.959z"/><path class="st168" d="M12.807 50.882c6.385 10.541 15.331 16.738 23.985 17.811 1.492-10.754-.872-23.232-7.258-33.773-6.386-10.544-15.332-16.741-23.985-17.81-1.492 10.75.872 23.231 7.258 33.772z"/><path class="st160" d="M5.549 17.11c-1.492 10.75.872 23.23 7.258 33.771 6.385 10.541 15.331 16.738 23.985 17.811L5.549 17.11z"/><path class="st205" d="M28.453 67.597c-.227 0-.455-.051-.671-.159-6.298-3.156-11.92-8.612-16.259-15.778-6.352-10.485-9.071-23.153-7.46-34.755a1.497 1.497 0 011.669-1.282c9.525 1.176 18.668 7.926 25.085 18.52 3.786 6.25 6.338 13.43 7.379 20.764a1.5 1.5 0 01-1.274 1.696 1.507 1.507 0 01-1.696-1.274c-.984-6.937-3.396-13.725-6.975-19.631-5.595-9.237-13.325-15.304-21.4-16.862-1.089 10.51 1.514 21.819 7.239 31.268 4.046 6.683 9.245 11.748 15.036 14.651a1.5 1.5 0 01-.673 2.842z"/><path class="st205" d="M21.672 25.169C16.668 20.55 11.05 17.79 5.549 17.11c-1.033 7.45-.212 15.729 2.512 23.616 6.639-2.053 15.421 3.47 13.611-15.557z"/><path class="st168" d="M122.193 50.882c-6.385 10.541-15.331 16.738-23.985 17.811-1.492-10.754.871-23.232 7.258-33.773 6.386-10.543 15.332-16.74 23.986-17.809 1.491 10.749-.872 23.23-7.259 33.771z"/><path class="st160" d="M129.452 17.11c1.491 10.75-.872 23.23-7.259 33.771-6.385 10.541-15.331 16.738-23.985 17.811l31.244-51.582z"/><path class="st205" d="M106.547 67.597a1.499 1.499 0 01-.673-2.841c5.789-2.901 10.988-7.968 15.036-14.651 5.725-9.447 8.328-20.758 7.24-31.271-8.076 1.559-15.807 7.625-21.401 16.862-3.579 5.909-5.991 12.697-6.974 19.631a1.5 1.5 0 11-2.97-.422c1.039-7.33 3.591-14.511 7.378-20.764 6.417-10.594 15.561-17.344 25.086-18.52a1.5 1.5 0 011.669 1.282c1.61 11.604-1.109 24.271-7.461 34.755-4.341 7.167-9.963 12.623-16.259 15.778-.216.11-.446.161-.671.161z"/><path class="st205" d="M113.328 25.169c5.005-4.619 10.622-7.379 16.124-8.059 1.033 7.449.212 15.729-2.512 23.615-6.64-2.052-15.423 3.471-13.612-15.556z"/><circle class="st141" cx="36.499" cy="91.384" r="7.013"/><path class="st227" d="M43.512 91.384a7.014 7.014 0 01-14.027 0"/><circle class="st141" cx="98.501" cy="91.384" r="7.014"/><path class="st227" d="M105.515 91.384a7.015 7.015 0 01-14.028 0"/><path class="st205" d="M63.582 80.823l3.918 1.961 3.919-1.961z"/><path class="st205" d="M67.5 84.284c-.23 0-.46-.053-.671-.158l-3.918-1.961a1.502 1.502 0 01.671-2.842h7.837a1.502 1.502 0 01.671 2.842l-3.919 1.961a1.506 1.506 0 01-.671.158z"/><path class="st205" d="M63.41 90.978h-1.457a5.596 5.596 0 01-5.591-5.588 1.5 1.5 0 013 0 2.592 2.592 0 002.591 2.588h1.457a2.591 2.591 0 002.589-2.588v-1.455a1.5 1.5 0 013 0v1.455a5.595 5.595 0 01-5.589 5.588z"/><path class="st205" d="M73.047 90.978h-1.456a5.596 5.596 0 01-5.59-5.588v-1.455a1.5 1.5 0 013 0v1.455a2.592 2.592 0 002.59 2.588h1.456a2.592 2.592 0 002.591-2.588 1.5 1.5 0 013 0 5.596 5.596 0 01-5.591 5.588z"/><path class="st211" d="M51.338 73.753a8.05 8.05 0 01-8.053 8.051 8.05 8.05 0 01-8.051-8.051 8.052 8.052 0 1116.104 0z"/><path class="st205" d="M51.338 73.753c0 4.449-3.605 1.662-8.053 1.662-4.446 0-8.051 2.787-8.051-1.662a8.052 8.052 0 1116.104 0z"/><path class="st205" d="M43.285 83.304c-5.267 0-9.551-4.284-9.551-9.551 0-5.268 4.284-9.553 9.551-9.553 5.268 0 9.553 4.285 9.553 9.553 0 5.267-4.285 9.551-9.553 9.551zm0-16.104a6.56 6.56 0 00-6.551 6.553 6.558 6.558 0 006.551 6.551 6.56 6.56 0 006.553-6.551 6.56 6.56 0 00-6.553-6.553z"/><circle class="st188" cx="39.282" cy="71.136" r="3.281"/><path class="st205" d="M39.281 75.915c-2.636 0-4.78-2.144-4.78-4.779s2.145-4.779 4.78-4.779c2.637 0 4.781 2.144 4.781 4.779s-2.144 4.779-4.781 4.779zm0-6.559c-.981 0-1.78.798-1.78 1.779s.799 1.779 1.78 1.779c.982 0 1.781-.798 1.781-1.779s-.798-1.779-1.781-1.779z"/><path class="st211" d="M99.765 73.753a8.049 8.049 0 01-8.051 8.051 8.05 8.05 0 01-8.052-8.051 8.052 8.052 0 1116.103 0z"/><path class="st205" d="M99.765 73.753c0 4.449-3.604 1.662-8.051 1.662s-8.052 2.787-8.052-1.662a8.052 8.052 0 1116.103 0z"/><path class="st205" d="M91.714 83.304c-5.267 0-9.552-4.284-9.552-9.551 0-5.268 4.285-9.553 9.552-9.553s9.551 4.285 9.551 9.553c0 5.267-4.285 9.551-9.551 9.551zm0-16.104a6.56 6.56 0 00-6.552 6.553c0 3.612 2.939 6.551 6.552 6.551s6.551-2.938 6.551-6.551a6.56 6.56 0 00-6.551-6.553z"/><circle class="st188" cx="87.709" cy="71.136" r="3.28"/><path class="st205" d="M87.71 75.915c-2.637 0-4.781-2.144-4.781-4.779s2.145-4.779 4.781-4.779c2.636 0 4.779 2.144 4.779 4.779s-2.143 4.779-4.779 4.779zm0-6.559c-.982 0-1.781.798-1.781 1.779s.799 1.779 1.781 1.779c.981 0 1.779-.798 1.779-1.779s-.798-1.779-1.779-1.779z"/></svg>